# xmcd
#
# Track frame offsets: 
#        150
#        17562
#        32900
#        58698
#        73074
#        97240
#        120987
#        136550
#        163720
#        178565
#        197478
#        221852
#        241861
#        257090
#        281231
#        296060
#        318647
#        341684
#
# Disc length: 4752 seconds
#
# Revision: 0
# Processed by: cddbd v1.5.2PL0 Copyright (c) Steve Scherf et al.
# Submitted via: ExactAudioCopy v1.3
#
DISCID=16128e12
DTITLE=Various Artist - Akella Presents - vol. 213 - Blues-Rock  CD2
DYEAR=2019
DGENRE=Blues
TTITLE0=The Road Dogs - Circle Of Blues
TTITLE1=Matty T Wall - Boom Boom
TTITLE2=Eddie Martin - Free Man Blues
TTITLE3=Big Smokin Tree - Blue Collar Boogie
TTITLE4=Walter Trout - Blues Deluxe
TTITLE5=Larry Wilson Band - Drug On Wars
TTITLE6=Demian Band - Going Crazy
TTITLE7=John Verity Band - Say Why
TTITLE8=Sons Of Liberty - Free Man
TTITLE9=Matteo Pizzoli's True Grit - Crow on My Shoulder
TTITLE10=Mike Zito and Friends - Wee Wee Hours
TTITLE11=The Tony Nash Trio - Heart Of Stone
TTITLE12=Cowboy Diplomacy - Bad Man
TTITLE13=Bazooka Benny - The Yard
TTITLE14=Dirt River Radio - His Electric Eye
TTITLE15=Ken Tucker - Tin Cup Blues
TTITLE16=Gregor Hilden - Oh Well
TTITLE17=Ed Maly - Foxy Lady
EXTD=
EXTT0=
EXTT1=
EXTT2=
EXTT3=
EXTT4=
EXTT5=
EXTT6=
EXTT7=
EXTT8=
EXTT9=
EXTT10=
EXTT11=
EXTT12=
EXTT13=
EXTT14=
EXTT15=
EXTT16=
EXTT17=
PLAYORDER=
